<svg width="31" height="31" viewBox="0 0 31 31" fill="none" xmlns="http://www.w3.org/2000/svg">
<path fill-rule="evenodd" clip-rule="evenodd" d="M27.8362 8.97251C27.2692 8.45373 26.5046 8.15109 25.8845 8.20006C25.7184 8.21321 25.4477 8.32169 25.2096 8.47061C24.8798 8.67681 24.7792 8.78756 24.619 9.12013C24.5129 9.34066 24.3597 9.65649 24.2786 9.82202C23.8628 10.6706 22.7223 10.7468 21.7223 9.99256C21.5261 9.84456 21.2824 9.55172 21.0168 9.14464C20.6567 8.59273 20.6035 8.46505 20.5436 8.00976C20.4703 7.45278 20.5448 6.91483 20.7429 6.56978C20.8721 6.34485 21.3179 6.01914 21.5989 5.94444C21.8152 5.88694 22.0387 5.47859 21.9678 5.27059C21.9359 5.17709 21.193 3.99359 20.3168 2.6405L18.7236 0.180382L16.2107 1.757C14.6013 2.76679 13.6579 3.32477 13.5868 3.309C13.5258 3.29548 13.3189 3.03864 13.1271 2.73827C12.8085 2.23947 12.7454 2.17838 12.3984 2.0322C11.6379 1.71196 10.783 1.79615 9.87012 2.28124C9.04001 2.72232 8.44248 3.46986 8.2593 4.29622C8.0696 5.15221 8.38517 5.83837 9.13463 6.19946C9.34633 6.30155 9.65499 6.45139 9.82052 6.53248C10.2612 6.74845 10.5058 7.16779 10.5069 7.70899C10.5101 9.17938 8.69235 10.5569 7.13965 10.2607C6.59345 10.1566 6.39877 10.0111 6.07353 9.46409C5.75481 8.92802 5.52961 8.75429 5.26886 8.84312C5.17591 8.87481 3.9929 9.61754 2.64002 10.4936L0.180283 12.0865L1.75505 14.5965C2.78476 16.2378 3.32421 17.1509 3.31359 17.2349C3.30211 17.3265 3.1648 17.433 2.83378 17.607C2.28616 17.8949 2.07269 18.1599 1.90865 18.7555C1.70005 19.5129 1.98103 20.6353 2.56792 21.389C3.63971 22.7654 5.34023 23.0192 6.07641 21.9127C6.20399 21.7208 6.33256 21.4692 6.36201 21.3534C6.51915 20.736 7.07178 20.306 7.70955 20.3048C9.24982 20.3017 10.6515 22.2707 10.2212 23.833C10.1588 24.0594 10.0371 24.315 9.95048 24.4012C9.86398 24.4873 9.76613 24.5891 9.73308 24.6274C9.70003 24.6657 9.53225 24.7477 9.36025 24.8098C8.98542 24.945 8.75289 25.275 8.84406 25.5425C8.87592 25.636 9.61887 26.8195 10.4951 28.1726L12.0882 30.6327L14.6011 29.0561C16.2106 28.0463 17.1539 27.4883 17.225 27.5041C17.286 27.5176 17.4929 27.7744 17.6847 28.0748C18.0033 28.5736 18.0664 28.6347 18.4134 28.7809C19.9814 29.4412 22.1745 28.245 22.5521 26.5235C22.7416 25.6594 22.4284 24.9755 21.6772 24.6136C21.4655 24.5115 21.1568 24.3617 20.9913 24.2806C20.5506 24.0646 20.306 23.6453 20.3049 23.1041C20.3016 21.565 22.2716 20.1626 23.8326 20.5928C24.3229 20.7279 24.4775 20.8615 24.7521 21.3876C24.9915 21.846 25.2807 22.0593 25.5421 21.9702C25.6356 21.9384 26.8189 21.1955 28.1718 20.3195L30.6315 18.7266L29.0568 16.2166C28.0271 14.5753 27.4876 13.6622 27.4982 13.5782C27.5097 13.4866 27.647 13.3801 27.978 13.2061C28.3106 13.0313 28.4915 12.8907 28.6176 12.709C29.306 11.7177 28.9439 9.98617 27.8362 8.97251Z" fill="#7E007E"/>
</svg>
