<svg width="40" height="69" viewBox="0 0 40 69" fill="none" xmlns="http://www.w3.org/2000/svg">
<path fill-rule="evenodd" clip-rule="evenodd" d="M16.045 0.273565C12.2647 1.0386 8.5832 3.03759 5.82478 5.82323C2.97725 8.69857 1.0191 12.4659 0.246517 16.555C-0.0764302 18.2648 -0.0833868 21.2907 0.233406 22.3247C0.750469 24.0126 2.34741 25.7042 4.03412 26.3509C5.20965 26.8016 6.87576 26.8663 8.04768 26.5069C10.8093 25.6599 12.6394 23.1996 12.6394 20.3341C12.6394 18.1795 13.3553 16.4128 14.8334 14.9203C16.7469 12.9881 19.1987 12.3023 21.7958 12.9729C23.1447 13.3213 24.154 13.9097 25.1479 14.9271C26.577 16.3897 27.272 18.1318 27.2526 20.2025C27.2284 22.7839 26.0392 24.9274 23.8323 26.3678C22.6679 27.1278 21.567 27.4311 19.6629 27.5165C17.0938 27.6317 15.7951 28.1218 14.4906 29.4681C13.6601 30.3251 13.0253 31.519 12.7873 32.6715C12.6924 33.131 12.6394 35.5045 12.6394 39.2965C12.6394 44.127 12.6762 45.3485 12.8412 45.9877C13.6493 49.121 16.2856 51.0959 19.3954 50.8977C21.3021 50.7762 22.9763 49.866 24.0814 48.35C25.1755 46.8492 25.2646 46.4511 25.3204 42.8157L25.3695 39.626L26.4627 39.2556C27.0641 39.052 28.1461 38.5888 28.8673 38.2263C38.421 33.4251 42.5837 21.9272 38.3429 12.0538C35.7537 6.02519 30.3164 1.60127 23.8647 0.273565C22.092 -0.0911884 17.8475 -0.0911884 16.045 0.273565ZM17.3314 53.5779C15.8186 53.9091 14.5985 54.598 13.4519 55.7682C11.3535 57.9095 10.6599 60.7895 11.5546 63.6449C12.9431 68.076 18.0671 70.2737 22.2488 68.2315C26.2222 66.2912 27.7765 61.4594 25.7046 57.4884C25.0758 56.2834 23.6274 54.8683 22.4054 54.2651C20.6991 53.4229 19.0556 53.2003 17.3314 53.5779Z" fill="#525252"/>
</svg>
